PathFileType	4	(X/Y/Z)	Patient4_TMGait_0pt5_01_left_02.trc.trc
DataRate	CameraRate	NumFrames	NumMarkers	Units	OrigDataRate	OrigDataStartFrame	OrigNumFrames
76.086956521739	76.086956521739	5	33	mm	76.086956521739	36	       141
Frame#	Time	L.ASIS			Sacral			L.Shoulder			Chest			R.Shoulder			Neck			R.ASIS			R.Thigh.Superior			R.Thigh.Lateral			R.Thigh.Inferior			R.Patella			L.Thigh.Superior			L.Thigh.Lateral			L.Thigh.Inferior			L.Patella			L.Shank.Superior			L.Shank.Lateral			L.Shank.Inferior			R.Shank.Superior			R.Shank.Lateral			R.Shank.Inferior			R.Heel			R.Midfoot.Superior			R.Midfoot.Lateral			R.Toe			L.Heel			L.Midfoot.Lateral			L.Midfoot.Superior			L.Toe			L.Elbow			L.Wrist			R.Elbow			R.Wrist			
		X1	Y1	Z1	X2	Y2	Z2	X3	Y3	Z3	X4	Y4	Z4	X5	Y5	Z5	X6	Y6	Z6	X7	Y7	Z7	X8	Y8	Z8	X9	Y9	Z9	X10	Y10	Z10	X11	Y11	Z11	X12	Y12	Z12	X13	Y13	Z13	X14	Y14	Z14	X15	Y15	Z15	X16	Y16	Z16	X17	Y17	Z17	X18	Y18	Z18	X19	Y19	Z19	X20	Y20	Z20	X21	Y21	Z21	X22	Y22	Z22	X23	Y23	Z23	X24	Y24	Z24	X25	Y25	Z25	X26	Y26	Z26	X27	Y27	Z27	X28	Y28	Z28	X29	Y29	Z29	X30	Y30	Z30	X31	Y31	Z31	X32	Y32	Z32	X33	Y33	Z33	

36	2.980000000000	773.369092606024	954.144991604478	323.356691108063	569.184734561128	1002.552722804538	494.765827529336	717.452296780088	1426.458028476117	297.641465774278	837.011555678750	1359.083396710282	448.131634557564	770.795623423308	1436.119965904908	628.862038695039	730.615558206390	1489.541445596323	447.386847744240	802.754795370501	931.540242188097	596.983692048354	803.341250750838	718.703156665623	571.499588310269	702.579043013351	624.545869128163	634.796906392127	764.599670052205	556.755837272363	555.604037998879	743.433772198377	460.213926554745	564.286909978885	847.717039143053	765.260487352105	363.555175213595	786.574733051361	637.584985340863	296.963037700507	881.085006143976	573.551069734000	363.654689327192	892.985534837184	500.803317199701	369.945601021721	872.372615836218	426.438436965572	359.771539889588	795.236732648096	305.527757483947	304.519481080109	855.534503771984	198.106666710416	374.151999006109	684.860489962152	385.814628698421	571.357708066579	583.921831699283	313.076102891501	636.619390823662	590.195940822252	208.482948805558	576.351148889857	410.327136403324	79.289999385515	551.672133780810	588.531496909750	102.136964986386	587.343908642900	491.119293078036	54.824843562932	624.318714574611	695.835904319146	36.774354280768	614.736708451453	737.627679972789	37.869143561573	409.057140073300	814.483217490891	35.671766153616	330.708374448282	895.846830308201	97.314834490011	359.869097609303	1025.133206327310	47.915556845904	336.657070074877	633.923924353147	1079.799832140063	191.024488755329	689.869661631684	823.223421339107	190.449983878034	847.591362453922	1091.614868802065	724.476661349866	1070.113049633365	1004.400832874475	631.451149715233	
37	2.993142857143	774.991937597986	955.446089632494	320.692982902992	570.202261147092	1003.339817875507	491.496234521997	718.427153052277	1427.445075411600	295.043565855655	837.585523804267	1360.314025076954	445.945906707338	770.753519897671	1437.521499627978	626.341451015069	731.038813257887	1490.595535759876	444.742169775618	803.428139507949	932.501018710377	594.361919532741	806.189587406041	719.785867812010	569.485572133479	706.590818666048	624.707470878087	632.713351807497	770.203219751475	557.034320989335	554.263009320903	749.814745524705	458.992150099045	564.352011883262	848.699210089326	765.376100643251	360.694466842023	785.964633860780	637.772801707050	295.229533042414	879.846186204311	572.995369615406	361.842353259411	891.093166893361	500.311943755944	368.969521552326	869.793343281556	425.980649520852	359.042022771443	791.848855726164	305.731923275349	303.670357939860	850.313311545195	197.855592885779	373.968129536593	688.660394305341	385.718227161138	570.945939282154	585.354027072202	316.059060039535	635.809777081718	589.577023903520	210.805371755033	576.477482553041	406.346504332940	86.662721437094	551.754340908273	585.277741205581	103.316907482427	587.670996480974	486.209939966485	59.116380980471	624.294789640804	689.665665881726	36.450367980043	614.550008918266	731.052311287811	37.933528548666	408.948316528093	807.932509188784	35.772342823510	330.638039227638	889.282906131684	97.407453280671	359.873108173971	1018.604269561367	47.952782878500	336.615031549025	638.914517613679	1079.893926034189	187.500018904937	699.895258027817	824.498732718244	187.283920520911	843.465411334718	1092.236426286466	723.556295168567	1062.765801496665	994.315462611818	632.831991002830	
38	3.006285714286	776.551183156112	956.621374039448	318.122501181014	571.178368099620	1004.022659734368	488.231664426905	719.494441591405	1428.410659841645	292.475906572627	838.116317395689	1361.507216249941	443.880149730788	770.505992248730	1438.812415413090	623.908948345842	731.402361708089	1491.595176929976	442.146430535858	804.038847650173	933.379601490094	591.813211607875	809.422322819746	720.923044321574	567.547817604826	711.148715222868	624.776177890232	630.665565680947	776.515182449217	557.342345722011	552.979121063785	756.908537062086	457.807988428221	564.456920992899	849.361546820489	765.117241238406	357.534214489722	784.734939962207	637.765358719231	293.389752765586	878.056735201115	572.234757988468	359.823565164064	888.640367563742	499.689649167979	367.737611885463	866.705938862171	425.426317848215	358.095396336429	787.972712606610	305.737046512629	302.823089223818	844.880411846174	197.522160529931	373.685811015150	693.216400505207	385.659334705594	570.580568785303	587.535378295570	319.292238976580	634.986924561243	589.572859725123	213.423397644497	576.621185575265	402.949149456432	94.970545288041	551.799751213618	582.368173687195	104.701801468839	587.948748552373	481.630085128734	64.118312199885	624.252041856073	683.461315404398	35.993311659502	614.354730967057	724.394630176857	37.941391844436	408.861640546056	801.292929413848	35.782572471847	330.577768810267	882.671899882196	97.388343715346	359.860278310155	1012.031483568668	47.770178758890	336.562004912403	643.743724511375	1080.137619926380	183.818812564002	710.261867605095	826.145539524797	183.971536829191	838.834150464748	1092.762753395670	722.771369104367	1054.325713368495	983.628021075715	634.888188340434	
39	3.019428571429	778.016027109011	957.625456103278	315.654022181392	572.082923725164	1004.561790956052	485.007259278731	720.656656081033	1429.311310357379	289.959003753982	838.605405633539	1362.606901926411	441.950407081776	770.058821395291	1439.925708247358	621.587784458496	731.713583236482	1492.496500975051	439.623244420918	804.561299925711	934.132182945325	589.338836191002	813.026131185075	722.106667501277	565.657363044586	716.266239975864	624.751510730910	628.657189938738	783.500716360529	557.698264263858	551.709023744102	764.673384783966	456.691224499453	564.522327162511	849.709754190609	764.523487682884	354.187533732132	783.030451033979	637.605690777273	291.448302503722	875.826620472154	571.320939980160	357.660243206391	885.734673725629	498.954358312975	366.270985427897	863.220662418230	424.782901512944	356.945506683317	783.720680069019	305.563454012170	301.953835939802	839.316007625009	197.114694585522	373.309229701569	698.523961043041	385.655224068055	570.214862098266	590.499182786978	322.778930224154	634.134380727859	590.198898013049	216.366902846137	576.748110812633	400.233353421447	104.271533933311	551.789906240953	579.803982541233	106.376001426025	588.154983479281	477.443487307715	69.927050128139	624.183133939643	677.225276987464	35.363839710087	614.176092876499	717.696096476603	37.913270937876	408.791237623948	794.605351227555	35.723040392986	330.521014883863	876.059689328190	97.263211138284	359.833207609652	1005.449698987772	47.372315772614	336.501943563609	648.428732141129	1080.488522439627	179.982638768063	720.934362726828	828.134532629044	180.538218018828	833.692047555872	1093.128050964073	722.092362771606	1044.743135448118	972.449269165064	637.549552857072	
40	3.032571428571	779.350528579161	958.438502324801	313.282942141335	572.875837010871	1004.939650868064	481.853057555358	721.904566026883	1430.119394658012	287.518855037499	839.054457427462	1363.567830751926	440.167982359470	769.436164358104	1440.813218150378	619.400168250411	731.988901104448	1493.271260495596	437.201014326667	804.959045583512	934.739501544567	586.929114014540	816.960219313619	723.348704292111	563.768112076939	721.940216151660	624.655453065241	626.686770805499	791.100999916504	558.140688092548	550.399846523526	773.065464343749	455.686474578943	564.471732514906	849.766145796589	763.671336165029	350.774574210688	781.005032184944	637.345868083683	289.425104966593	873.277506056097	570.313481863006	355.421801667126	882.499478881445	498.134895026803	364.617237969933	859.456541728662	424.068832106245	355.629693683761	779.211941354424	305.250470085828	301.048169214531	833.690409501327	196.652897426684	372.852402405742	704.564450297264	385.737817584522	569.799072853021	594.263679959365	326.527429456537	633.230653538368	591.466084383494	219.669078228519	576.818962369955	398.299977601145	114.591172597231	551.695283980395	577.599854967141	108.433762751646	588.270135653090	473.726154877203	76.619927417315	624.072418723323	670.982800122787	34.550261846151	614.041139952256	710.993062218944	37.869271150167	408.729372171948	787.906439545942	35.619790127121	330.461552586383	869.477273615764	97.056115069020	359.792544025053	998.883909121571	46.803776912124	336.436675655700	653.020809992511	1080.908541276202	176.002839277070	731.884443009325	830.435063562777	177.014636849550	828.026099317703	1093.284480336802	721.500087834713	1033.970150159507	960.901386288641	640.747740508426	
